<svg version="1.1" xmlns="http://www.w3.org/2000/svg" viewBox="0 0 46.93237281186941 53.91483983716887" width="46.93237281186941" height="53.91483983716887" class="excalidraw-svg"><!-- svg-source:excalidraw --><metadata></metadata><defs><style class="style-fonts">
      </style></defs><rect x="0" y="0" width="46.93237281186941" height="53.91483983716887" fill-opacity="0"></rect><g stroke-opacity="0.5" fill-opacity="0.5" stroke-linecap="round" transform="translate(10 10) rotate(0 13.466186405934707 16.957419918584435)"><path d="M26.93 16.96 C26.93 17.94, 26.86 18.94, 26.73 19.9 C26.59 20.87, 26.39 21.83, 26.12 22.76 C25.85 23.68, 25.52 24.59, 25.13 25.44 C24.74 26.29, 24.28 27.11, 23.78 27.86 C23.28 28.61, 22.72 29.32, 22.12 29.95 C21.52 30.58, 20.87 31.15, 20.2 31.64 C19.52 32.13, 18.8 32.56, 18.07 32.89 C17.34 33.23, 16.57 33.49, 15.8 33.66 C15.04 33.83, 14.25 33.91, 13.47 33.91 C12.69 33.91, 11.9 33.83, 11.13 33.66 C10.36 33.49, 9.59 33.23, 8.86 32.89 C8.13 32.56, 7.41 32.13, 6.73 31.64 C6.06 31.15, 5.41 30.58, 4.81 29.95 C4.21 29.32, 3.65 28.61, 3.15 27.86 C2.65 27.11, 2.19 26.29, 1.8 25.44 C1.41 24.59, 1.08 23.68, 0.81 22.76 C0.55 21.83, 0.34 20.87, 0.2 19.9 C0.07 18.94, 0 17.94, 0 16.96 C0 15.98, 0.07 14.98, 0.2 14.01 C0.34 13.05, 0.55 12.08, 0.81 11.16 C1.08 10.24, 1.41 9.33, 1.8 8.48 C2.19 7.63, 2.65 6.81, 3.15 6.06 C3.65 5.31, 4.21 4.6, 4.81 3.97 C5.41 3.34, 6.06 2.76, 6.73 2.27 C7.41 1.78, 8.13 1.36, 8.86 1.02 C9.59 0.69, 10.36 0.43, 11.13 0.26 C11.9 0.09, 12.69 0, 13.47 0 C14.25 0, 15.04 0.09, 15.8 0.26 C16.57 0.43, 17.34 0.69, 18.07 1.02 C18.8 1.36, 19.52 1.78, 20.2 2.27 C20.87 2.76, 21.52 3.34, 22.12 3.97 C22.72 4.6, 23.28 5.31, 23.78 6.06 C24.28 6.81, 24.74 7.63, 25.13 8.48 C25.52 9.33, 25.85 10.24, 26.12 11.16 C26.39 12.08, 26.59 13.05, 26.73 14.01 C26.86 14.98, 26.9 16.47, 26.93 16.96 C26.97 17.45, 26.97 16.47, 26.93 16.96" stroke="none" stroke-width="0" fill="#228BE6"></path><path d="M26.93 16.96 C26.93 17.94, 26.86 18.94, 26.73 19.9 C26.59 20.87, 26.39 21.83, 26.12 22.76 C25.85 23.68, 25.52 24.59, 25.13 25.44 C24.74 26.29, 24.28 27.11, 23.78 27.86 C23.28 28.61, 22.72 29.32, 22.12 29.95 C21.52 30.58, 20.87 31.15, 20.2 31.64 C19.52 32.13, 18.8 32.56, 18.07 32.89 C17.34 33.23, 16.57 33.49, 15.8 33.66 C15.04 33.83, 14.25 33.91, 13.47 33.91 C12.69 33.91, 11.9 33.83, 11.13 33.66 C10.36 33.49, 9.59 33.23, 8.86 32.89 C8.13 32.56, 7.41 32.13, 6.73 31.64 C6.06 31.15, 5.41 30.58, 4.81 29.95 C4.21 29.32, 3.65 28.61, 3.15 27.86 C2.65 27.11, 2.19 26.29, 1.8 25.44 C1.41 24.59, 1.08 23.68, 0.81 22.76 C0.55 21.83, 0.34 20.87, 0.2 19.9 C0.07 18.94, 0 17.94, 0 16.96 C0 15.98, 0.07 14.98, 0.2 14.01 C0.34 13.05, 0.55 12.08, 0.81 11.16 C1.08 10.24, 1.41 9.33, 1.8 8.48 C2.19 7.63, 2.65 6.81, 3.15 6.06 C3.65 5.31, 4.21 4.6, 4.81 3.97 C5.41 3.34, 6.06 2.76, 6.73 2.27 C7.41 1.78, 8.13 1.36, 8.86 1.02 C9.59 0.69, 10.36 0.43, 11.13 0.26 C11.9 0.09, 12.69 0, 13.47 0 C14.25 0, 15.04 0.09, 15.8 0.26 C16.57 0.43, 17.34 0.69, 18.07 1.02 C18.8 1.36, 19.52 1.78, 20.2 2.27 C20.87 2.76, 21.52 3.34, 22.12 3.97 C22.72 4.6, 23.28 5.31, 23.78 6.06 C24.28 6.81, 24.74 7.63, 25.13 8.48 C25.52 9.33, 25.85 10.24, 26.12 11.16 C26.39 12.08, 26.59 13.05, 26.73 14.01 C26.86 14.98, 26.9 16.47, 26.93 16.96 C26.97 17.45, 26.97 16.47, 26.93 16.96" stroke="#FFFFFF" stroke-width="1.5" fill="none" stroke-dasharray="1.5 7"></path></g><g stroke-linecap="round" transform="translate(14.98747644664246 18.97745760395651) rotate(0 8.478709959292189 8.478709959292189)"><path d="M8.31 -0.22 C10.15 -0.37, 13.08 0.62, 14.43 1.75 C15.79 2.89, 16.16 4.71, 16.45 6.59 C16.74 8.47, 16.99 11.33, 16.17 13.03 C15.34 14.73, 13.25 16.27, 11.51 16.8 C9.77 17.32, 7.42 16.86, 5.74 16.17 C4.05 15.48, 2.27 14.14, 1.38 12.65 C0.49 11.16, 0.11 9.09, 0.41 7.24 C0.7 5.38, 1.77 2.77, 3.15 1.49 C4.53 0.22, 7.81 -0.19, 8.7 -0.4 C9.59 -0.61, 8.44 0.1, 8.49 0.25 M8.74 -0.67 C10.55 -0.73, 13.46 0.79, 14.73 2.21 C16.01 3.63, 16.37 5.99, 16.4 7.86 C16.44 9.74, 15.81 11.93, 14.95 13.46 C14.1 14.99, 12.88 16.56, 11.3 17.04 C9.72 17.51, 7.25 17.09, 5.47 16.32 C3.7 15.55, 1.55 14.16, 0.65 12.41 C-0.25 10.66, -0.42 7.64, 0.08 5.81 C0.58 3.99, 2.17 2.33, 3.66 1.45 C5.16 0.56, 8.17 0.72, 9.08 0.52 C9.98 0.32, 9.23 0.13, 9.1 0.22" stroke="none" stroke-width="0" fill="#E03131"></path><path d="M9.83 0.05 C11.53 0.36, 13.99 1.68, 15.11 3.18 C16.23 4.68, 16.67 7.25, 16.54 9.03 C16.42 10.82, 15.6 12.52, 14.37 13.87 C13.14 15.22, 10.93 16.79, 9.17 17.14 C7.41 17.49, 5.29 17.07, 3.8 15.99 C2.3 14.92, 0.73 12.41, 0.19 10.69 C-0.36 8.97, -0.17 7.23, 0.53 5.67 C1.24 4.11, 2.74 2.24, 4.41 1.33 C6.09 0.41, 9.48 0.3, 10.57 0.19 C11.65 0.08, 10.95 0.51, 10.93 0.66 M10.76 0.2 C12.52 0.48, 14.65 2.11, 15.68 3.48 C16.7 4.85, 17.03 6.6, 16.92 8.41 C16.81 10.22, 16.18 12.83, 15.01 14.34 C13.84 15.84, 11.61 17.23, 9.9 17.45 C8.18 17.67, 6.25 16.8, 4.73 15.64 C3.21 14.49, 1.5 12.33, 0.77 10.51 C0.04 8.68, -0.37 6.31, 0.35 4.69 C1.06 3.08, 3.53 1.72, 5.08 0.84 C6.63 -0.03, 8.81 -0.58, 9.64 -0.58 C10.48 -0.58, 10.14 0.67, 10.09 0.82" stroke="#A5D8FF" stroke-width="4" fill="none"></path></g></svg>